<svg xmlns="http://www.w3.org/2000/svg" width="47.995" height="47.996" viewBox="0 0 47.995 47.996">
  <g id="patent" transform="translate(-0.002)">
    <g id="Grupo_27" data-name="Grupo 27" transform="translate(0.002)">
      <g id="Grupo_26" data-name="Grupo 26" transform="translate(0)">
        <path id="Trazado_26" data-name="Trazado 26" d="M45,0H3A3,3,0,0,0,0,3V37a3,3,0,0,0,3,3H27V38H3a1,1,0,0,1-1-1V3A1,1,0,0,1,3,2H45a1,1,0,0,1,1,1V37a1,1,0,0,1-1,1H43v2h2a3,3,0,0,0,3-3V3A3,3,0,0,0,45,0Z" transform="translate(-0.002)" fill="#df8e22"/>
      </g>
    </g>
    <g id="Grupo_29" data-name="Grupo 29" transform="translate(5.001 4.999)">
      <g id="Grupo_28" data-name="Grupo 28">
        <path id="Trazado_27" data-name="Trazado 27" d="M90.331,58.333a4,4,0,0,1-4-4,1,1,0,0,0-1-1h-26a1,1,0,0,0-1,1,4,4,0,0,1-4,4,1,1,0,0,0-1,1v18a1,1,0,0,0,1,1,4,4,0,0,1,4,4,1,1,0,0,0,1,1h13v-2H60.251a6.016,6.016,0,0,0-4.916-4.916V60.249a6.016,6.016,0,0,0,4.916-4.916H84.415a6.016,6.016,0,0,0,4.916,4.916v8.082h2v-9A1,1,0,0,0,90.331,58.333Z" transform="translate(-53.335 -53.333)" fill="#df8e22"/>
      </g>
    </g>
    <g id="Grupo_31" data-name="Grupo 31" transform="translate(25.999 20.998)">
      <g id="Grupo_30" data-name="Grupo 30">
        <path id="Trazado_28" data-name="Trazado 28" d="M286.335,224a9,9,0,1,0,9,9A9,9,0,0,0,286.335,224Zm0,16a7,7,0,1,1,7-7A7,7,0,0,1,286.335,240Z" transform="translate(-277.336 -224)" fill="#df8e22"/>
      </g>
    </g>
    <g id="Grupo_33" data-name="Grupo 33" transform="translate(28.999 35.996)">
      <g id="Grupo_32" data-name="Grupo 32">
        <path id="Trazado_29" data-name="Trazado 29" d="M319.335,384v8.918l-3.375-2.7a1,1,0,0,0-1.25,0l-3.375,2.7V384h-2v11a1,1,0,0,0,1.625.781l4.375-3.5,4.375,3.5a1,1,0,0,0,1.625-.781V384Z" transform="translate(-309.336 -384)" fill="#df8e22"/>
      </g>
    </g>
    <g id="Grupo_35" data-name="Grupo 35" transform="translate(13.001 9.999)">
      <g id="Grupo_34" data-name="Grupo 34">
        <path id="Trazado_30" data-name="Trazado 30" d="M159.667,106.667h-20a1,1,0,0,0-1,1v4a1,1,0,0,0,1,1h20a1,1,0,0,0,1-1v-4A1,1,0,0,0,159.667,106.667Zm-1,4h-18v-2h18Z" transform="translate(-138.669 -106.667)" fill="#df8e22"/>
      </g>
    </g>
    <g id="Grupo_37" data-name="Grupo 37" transform="translate(12.001 18.998)">
      <g id="Grupo_36" data-name="Grupo 36">
        <rect id="Rectángulo_21" data-name="Rectángulo 21" width="2" height="2" fill="#df8e22"/>
      </g>
    </g>
    <g id="Grupo_39" data-name="Grupo 39" transform="translate(16 18.998)">
      <g id="Grupo_38" data-name="Grupo 38">
        <rect id="Rectángulo_22" data-name="Rectángulo 22" width="2" height="2" fill="#df8e22"/>
      </g>
    </g>
    <g id="Grupo_41" data-name="Grupo 41" transform="translate(12.001 22.998)">
      <g id="Grupo_40" data-name="Grupo 40">
        <rect id="Rectángulo_23" data-name="Rectángulo 23" width="11.999" height="2" fill="#df8e22"/>
      </g>
    </g>
    <g id="Grupo_43" data-name="Grupo 43" transform="translate(29.999 24.997)">
      <g id="Grupo_42" data-name="Grupo 42">
        <path id="Trazado_31" data-name="Trazado 31" d="M325,266.667a5,5,0,1,0,5,5A5,5,0,0,0,325,266.667Zm0,8a3,3,0,1,1,3-3A3,3,0,0,1,325,274.666Z" transform="translate(-320.003 -266.667)" fill="#df8e22"/>
      </g>
    </g>
    <g id="Grupo_45" data-name="Grupo 45" transform="translate(5.002 32.997)">
      <g id="Grupo_44" data-name="Grupo 44">
        <rect id="Rectángulo_24" data-name="Rectángulo 24" width="2" height="2" fill="#df8e22"/>
      </g>
    </g>
    <g id="Grupo_47" data-name="Grupo 47" transform="translate(40.998 4.999)">
      <g id="Grupo_46" data-name="Grupo 46">
        <rect id="Rectángulo_25" data-name="Rectángulo 25" width="2" height="2" fill="#df8e22"/>
      </g>
    </g>
    <g id="Grupo_49" data-name="Grupo 49" transform="translate(5.002 4.999)">
      <g id="Grupo_48" data-name="Grupo 48">
        <rect id="Rectángulo_26" data-name="Rectángulo 26" width="2" height="2" fill="#df8e22"/>
      </g>
    </g>
  </g>
</svg>
