<svg xmlns="http://www.w3.org/2000/svg" width="780.349" height="620.386" viewBox="0 0 780.349 620.386">
  <g id="coding" transform="translate(0 -52.478)">
    <g id="Grupo_67" data-name="Grupo 67" transform="translate(541.369 142.224)">
      <g id="Grupo_66" data-name="Grupo 66" transform="translate(0 0)">
        <path id="Trazado_78" data-name="Trazado 78" d="M586.2,311.734,405.741,120.547a29.261,29.261,0,1,0-42.558,40.168l161.5,171.093-161.5,171.113a29.267,29.267,0,0,0,42.56,40.187L586.2,351.912A29.274,29.274,0,0,0,586.2,311.734Z" transform="translate(-355.199 -111.361)" fill="#232323"/>
      </g>
    </g>
    <g id="Grupo_69" data-name="Grupo 69" transform="translate(0.001 142.221)">
      <g id="Grupo_68" data-name="Grupo 68">
        <path id="Trazado_79" data-name="Trazado 79" d="M231.006,502.913,69.512,331.809l161.494-171.1a29.264,29.264,0,1,0-42.567-40.168L7.982,311.726a29.275,29.275,0,0,0,0,40.179L188.448,543.1a29.267,29.267,0,0,0,42.558-40.188Z" transform="translate(-0.001 -111.36)" fill="#232323"/>
      </g>
    </g>
    <g id="Grupo_71" data-name="Grupo 71" transform="translate(317.989 52.478)">
      <g id="Grupo_70" data-name="Grupo 70">
        <path id="Trazado_80" data-name="Trazado 80" d="M328.166,52.812a29.3,29.3,0,0,0-33.351,24.513L208.976,639.18a29.269,29.269,0,0,0,24.513,33.351,30.143,30.143,0,0,0,4.458.332,29.271,29.271,0,0,0,28.893-24.845L352.678,86.163A29.268,29.268,0,0,0,328.166,52.812Z" transform="translate(-208.637 -52.478)" fill="#232323"/>
      </g>
    </g>
  </g>
</svg>
