<svg id="internet" xmlns="http://www.w3.org/2000/svg" width="19.094" height="19.094" viewBox="0 0 19.094 19.094">
  <g id="Grupo_60" data-name="Grupo 60">
    <path id="Trazado_32" data-name="Trazado 32" d="M9.6,0H9.58A9.567,9.567,0,0,0,0,9.51a9.414,9.414,0,0,0,.76,3.715,9.721,9.721,0,0,0,5.109,5.109,9.414,9.414,0,0,0,3.715.76h0A9.547,9.547,0,0,0,9.6,0ZM7.732,1.322a11.083,11.083,0,0,0-2.32,3.153H2.816A8.49,8.49,0,0,1,7.732,1.322ZM2.1,5.587H4.933a11.6,11.6,0,0,0-.682,3.364H1.138A8.308,8.308,0,0,1,2.1,5.587ZM2.12,13.5a8.4,8.4,0,0,1-.982-3.431H4.247A11.555,11.555,0,0,0,4.933,13.5Zm.719,1.119H5.411A11.082,11.082,0,0,0,7.729,17.77,8.483,8.483,0,0,1,2.839,14.619Zm2.528-4.55H9.025V13.5H6.14A10.289,10.289,0,0,1,5.367,10.069Zm3.658,7.351a10.162,10.162,0,0,1-2.339-2.8H9.025v2.8Zm0-8.47H5.371A10.286,10.286,0,0,1,6.14,5.594H9.025Zm0-4.475H6.686a10.162,10.162,0,0,1,2.339-2.8ZM17,5.594a8.33,8.33,0,0,1,.953,3.356H14.918a11.554,11.554,0,0,0-.682-3.356Zm-.711-1.119H13.758a11.083,11.083,0,0,0-2.316-3.149A8.41,8.41,0,0,1,16.293,4.475Zm-6.149-2.8a10.162,10.162,0,0,1,2.34,2.8h-2.34Zm0,3.92H13.03A10.287,10.287,0,0,1,13.8,8.951H10.144ZM13.8,10.062A10.331,10.331,0,0,1,13.03,13.5H10.144V10.062ZM10.144,17.42V14.612h2.34A10.194,10.194,0,0,1,10.144,17.42Zm1.3.345a11.116,11.116,0,0,0,2.313-3.154h2.513A8.414,8.414,0,0,1,11.445,17.766ZM14.236,13.5a11.6,11.6,0,0,0,.686-3.439h3.035a8.494,8.494,0,0,1-.974,3.439Z" fill="#df8e22"/>
  </g>
</svg>
