<svg id="medal" xmlns="http://www.w3.org/2000/svg" width="19.138" height="24.222" viewBox="0 0 19.138 24.222">
  <g id="Grupo_15" data-name="Grupo 15" transform="translate(0 13.516)">
    <g id="Grupo_14" data-name="Grupo 14">
      <path id="Trazado_20" data-name="Trazado 20" d="M44.8,196.231l-.209.174a1.486,1.486,0,0,1-.976.363,1.569,1.569,0,0,1-.474-.077,1.513,1.513,0,0,1-1.018-1.088l-.446-1.806-1.8.126-3.431,8.139,3.494-1.527c.014-.007.021-.007.035-.014a.693.693,0,0,1,.9.4l1.346,3.571,3.034-7.191Z" transform="translate(-36.448 -193.797)" fill="#df8e22"/>
    </g>
  </g>
  <g id="Grupo_17" data-name="Grupo 17" transform="translate(6.068 4.052)">
    <g id="Grupo_16" data-name="Grupo 16" transform="translate(0)">
      <path id="Trazado_21" data-name="Trazado 21" d="M126.949,58.1a3.494,3.494,0,1,0,3.5,3.5A3.5,3.5,0,0,0,126.949,58.1Z" transform="translate(-123.448 -58.097)" fill="#df8e22"/>
    </g>
  </g>
  <g id="Grupo_19" data-name="Grupo 19" transform="translate(1.646 0)">
    <g id="Grupo_18" data-name="Grupo 18" transform="translate(0)">
      <path id="Trazado_22" data-name="Trazado 22" d="M75.831,7.435l-2.071-1.3a.7.7,0,0,1-.279-.851l.914-2.267a.154.154,0,0,0,.007-.056.125.125,0,0,0-.139-.126l-2.441.167a.707.707,0,0,1-.725-.53L70.51.1a.142.142,0,0,0-.091-.1.138.138,0,0,0-.126.028L68.417,1.611a.705.705,0,0,1-.9,0L65.649.035a.121.121,0,0,0-.126-.028.119.119,0,0,0-.091.1l-.586,2.371a.707.707,0,0,1-.725.53L61.68,2.839a.154.154,0,0,0-.056.007.134.134,0,0,0-.077.174l.914,2.267a.7.7,0,0,1-.279.851l-2.071,1.3a.118.118,0,0,0-.063.112.137.137,0,0,0,.063.119l2.071,1.29a.7.7,0,0,1,.279.851l-.914,2.26a.136.136,0,0,0,0,.1.151.151,0,0,0,.077.07l.014.007h.049l2.434-.174h.049a.694.694,0,0,1,.677.53l.586,2.371a.142.142,0,0,0,.091.1.119.119,0,0,0,.126-.021l1.876-1.576a.705.705,0,0,1,.9,0l1.869,1.576a.121.121,0,0,0,.126.028.129.129,0,0,0,.091-.1L71.1,12.61a.7.7,0,0,1,.725-.53l2.434.174a.059.059,0,0,0,.049,0l.014-.007a.11.11,0,0,0,.077-.07.136.136,0,0,0,0-.1l-.921-2.267a.7.7,0,0,1,.279-.851l2.078-1.29a.137.137,0,0,0,.063-.119A.118.118,0,0,0,75.831,7.435Zm-7.86,5.008a4.893,4.893,0,1,1,4.9-4.9A4.888,4.888,0,0,1,67.971,12.443Z" transform="translate(-60.048 0)" fill="#df8e22"/>
    </g>
  </g>
  <g id="Grupo_21" data-name="Grupo 21" transform="translate(9.471 13.509)">
    <g id="Grupo_20" data-name="Grupo 20">
      <path id="Trazado_23" data-name="Trazado 23" d="M178.483,193.823l-1.8-.126-.446,1.806a1.532,1.532,0,0,1-2.469.8l-1.423-1.179-.1.077.767,1.82,3.118,7.386,1.346-3.571c.007-.014.007-.021.014-.035a.7.7,0,0,1,.921-.363l3.5,1.513Z" transform="translate(-172.248 -193.697)" fill="#df8e22"/>
    </g>
  </g>
</svg>
