<svg id="calendar" xmlns="http://www.w3.org/2000/svg" width="23.442" height="23.974" viewBox="0 0 23.442 23.974">
  <g id="Grupo_13" data-name="Grupo 13" transform="translate(0)">
    <path id="Trazado_11" data-name="Trazado 11" d="M120.022,258.786a.544.544,0,0,0-.544-.544h-1.9a.544.544,0,0,0-.544.544v1.9a.544.544,0,0,0,.544.544h1.9a.544.544,0,0,0,.544-.544v-1.9Z" transform="translate(-111.553 -245.559)" fill="#df8e22"/>
    <path id="Trazado_12" data-name="Trazado 12" d="M216.657,258.786a.544.544,0,0,0-.544-.544h-1.9a.544.544,0,0,0-.544.544v1.9a.544.544,0,0,0,.544.544h1.9a.544.544,0,0,0,.544-.544Z" transform="translate(-203.442 -245.559)" fill="#df8e22"/>
    <path id="Trazado_13" data-name="Trazado 13" d="M313.285,258.786a.544.544,0,0,0-.544-.544h-1.9a.544.544,0,0,0-.544.544v1.9a.544.544,0,0,0,.544.544h1.9a.544.544,0,0,0,.544-.544Z" transform="translate(-295.325 -245.559)" fill="#df8e22"/>
    <path id="Trazado_14" data-name="Trazado 14" d="M120.022,355.419a.544.544,0,0,0-.544-.544h-1.9a.544.544,0,0,0-.544.544v1.9a.544.544,0,0,0,.544.544h1.9a.544.544,0,0,0,.544-.544v-1.9Z" transform="translate(-111.553 -337.447)" fill="#df8e22"/>
    <path id="Trazado_15" data-name="Trazado 15" d="M216.657,355.419a.544.544,0,0,0-.544-.544h-1.9a.544.544,0,0,0-.544.544v1.9a.544.544,0,0,0,.544.544h1.9a.544.544,0,0,0,.544-.544Z" transform="translate(-203.442 -337.447)" fill="#df8e22"/>
    <path id="Trazado_16" data-name="Trazado 16" d="M313.285,355.419a.544.544,0,0,0-.544-.544h-1.9a.544.544,0,0,0-.544.544v1.9a.544.544,0,0,0,.544.544h1.9a.544.544,0,0,0,.544-.544v-1.9Z" transform="translate(-295.325 -337.447)" fill="#df8e22"/>
    <path id="Trazado_17" data-name="Trazado 17" d="M26.767,54.152v2.9a2.369,2.369,0,0,1-2.374,2.367H22.9a2.381,2.381,0,0,1-2.388-2.367v-2.91h-6.75v2.91a2.381,2.381,0,0,1-2.388,2.367h-1.5A2.369,2.369,0,0,1,7.5,57.052v-2.9A2.159,2.159,0,0,0,5.411,56.3v17A2.16,2.16,0,0,0,7.56,75.457H26.7A2.162,2.162,0,0,0,28.853,73.3v-17A2.159,2.159,0,0,0,26.767,54.152Zm-.7,18.084a.929.929,0,0,1-.929.929H9.081a.929.929,0,0,1-.929-.929V63.458a.929.929,0,0,1,.929-.929H25.142a.929.929,0,0,1,.929.929v8.779Z" transform="translate(-5.411 -51.483)" fill="#df8e22"/>
    <path id="Trazado_18" data-name="Trazado 18" d="M80.364,6.382h1.481a.814.814,0,0,0,.814-.814V.814A.814.814,0,0,0,81.845,0H80.364a.814.814,0,0,0-.814.814V5.568A.814.814,0,0,0,80.364,6.382Z" transform="translate(-75.909)" fill="#df8e22"/>
    <path id="Trazado_19" data-name="Trazado 19" d="M345.272,6.382h1.481a.814.814,0,0,0,.814-.814V.814A.814.814,0,0,0,346.753,0h-1.481a.814.814,0,0,0-.814.814V5.568A.814.814,0,0,0,345.272,6.382Z" transform="translate(-327.807)" fill="#df8e22"/>
  </g>
</svg>
