<svg id="mail" xmlns="http://www.w3.org/2000/svg" width="20.747" height="23.605" viewBox="0 0 20.747 23.605">
  <g id="Grupo_10" data-name="Grupo 10" transform="translate(5.532 2.766)">
    <g id="Grupo_9" data-name="Grupo 9">
      <path id="Trazado_1" data-name="Trazado 1" d="M155.841,60a4.84,4.84,0,0,0-2.605,8.92,4.941,4.941,0,0,0,4.814.263.692.692,0,0,0-.578-1.257,3.583,3.583,0,0,1-3.49-.171,3.457,3.457,0,1,1,5.317-2.914.692.692,0,0,1-1.383.011s0-.007,0-.011a2.078,2.078,0,1,0-.692,1.545,2.073,2.073,0,0,0,3.458-1.545A4.846,4.846,0,0,0,155.841,60Zm.682,4.952a.69.69,0,1,1,0-.19A.692.692,0,0,0,156.523,64.952Z" transform="translate(-151 -60)" fill="#df8e22"/>
    </g>
  </g>
  <g id="Grupo_12" data-name="Grupo 12" transform="translate(0)">
    <g id="Grupo_11" data-name="Grupo 11">
      <path id="Trazado_2" data-name="Trazado 2" d="M51.747,9.081a.7.7,0,0,0-.2-.488L48.981,6.03V.692A.692.692,0,0,0,48.289,0H34.458a.692.692,0,0,0-.692.692V6.03L31.2,8.593,31.2,8.6a.7.7,0,0,0-.2.48h0V21.531a2.077,2.077,0,0,0,2.075,2.075h16.6a2.077,2.077,0,0,0,2.075-2.075V9.083Zm-2.766-1.1,1.1,1.1-1.1,1.1ZM35.149,6.316h0V1.383H47.6V6.316h0v5.246l-3.744,3.744h-4.96l-3.744-3.744ZM33.766,7.986v2.193l-1.1-1.1ZM32.383,21.244V10.752L37.629,16Zm.978.978,5.532-5.532h4.96l5.532,5.532Zm17-.978L45.118,16l5.246-5.246Z" transform="translate(-31)" fill="#df8e22"/>
    </g>
  </g>
</svg>
