<svg id="phone_1_" data-name="phone (1)" xmlns="http://www.w3.org/2000/svg" width="23.398" height="23.447" viewBox="0 0 23.398 23.447">
  <g id="Grupo_22" data-name="Grupo 22" transform="translate(0 0)">
    <path id="Trazado_24" data-name="Trazado 24" d="M23.323,17.208l-3.272-3.272a2.176,2.176,0,0,0-3.623.818,2.227,2.227,0,0,1-2.571,1.4c-2.337-.584-5.492-3.623-6.077-6.077a2.118,2.118,0,0,1,1.4-2.571A2.176,2.176,0,0,0,10,3.886L6.729.614a2.334,2.334,0,0,0-3.155,0l-2.22,2.22c-2.22,2.337.234,8.531,5.726,14.023S18.766,24.92,21.1,22.583l2.22-2.22A2.334,2.334,0,0,0,23.323,17.208Z" transform="translate(-0.539 0)" fill="#df8e22"/>
  </g>
</svg>
