<svg xmlns="http://www.w3.org/2000/svg" width="394.861" height="442.326" viewBox="0 0 394.861 442.326">
  <g id="_22263_Convertido_" data-name="22263 [Convertido]" transform="translate(0 0.02)">
    <g id="_2" data-name="2" transform="translate(0 -0.02)">
      <g id="wrist_left_pen" data-name="wrist left pen" transform="translate(222.959 206.726)">
        <path id="Trazado_33" data-name="Trazado 33" d="M98.192,95.873,105.475,95l2.642,4.549-5.215,1.539-4.021-.482-1.4-1.1Z" transform="translate(-96.474 -83.412)" fill="#d38753"/>
        <path id="Trazado_34" data-name="Trazado 34" d="M251.2,121.935a76.022,76.022,0,0,0-10.132-4.6,15.853,15.853,0,0,0-7.95,2.435c-.482.85-1.195,4.6-.528,5.009s1.516-.414,2.3-3.768a26.379,26.379,0,0,1,4.733-.253,3.1,3.1,0,0,1,2.3,2.3c0,.919,9.328.781,9.328.781Z" transform="translate(-232.322 -107.314)" fill="#e2a36a"/>
        <path id="Trazado_35" data-name="Trazado 35" d="M98.055,106.3l-.735,2.435,2.389-.919,14.842-16.336L113.2,90.24Z" transform="translate(-96.681 -89.589)" fill="#3c3c51"/>
        <ellipse id="Elipse_1" data-name="Elipse 1" cx="0.919" cy="0.551" rx="0.919" ry="0.551" transform="matrix(0.678, -0.735, 0.735, 0.678, 16.307, 1.351)" fill="#3c3c51"/>
        <path id="Trazado_36" data-name="Trazado 36" d="M97.19,98.707l.161.138.551-.505-.253-.23Z" transform="translate(-96.85 -79.377)" fill="#3c3c51"/>
        <path id="Trazado_37" data-name="Trazado 37" d="M240.2,120.072c-.138.8-1.562.735-3.4,1.011-1.31.184-3.194.8-3.24,1.287-.115,1.011,1.746,1.195,3.538.919a13.37,13.37,0,0,1,3.63-.505c2.849.207,6.893.3,8.8-1.424v-1.7S240.341,119.291,240.2,120.072Z" transform="translate(-230.718 -104.418)" fill="#e2a36a"/>
      </g>
      <path id="Trazado_38" data-name="Trazado 38" d="M313.264,117.032s-17.393-1.447-73.384,3.837v8.639s44.6,7.191,67.64,4.8S313.264,117.032,313.264,117.032Z" transform="translate(0.444 98.777)" fill="#e5c2b8"/>
      <path id="Trazado_39" data-name="Trazado 39" d="M217.429,192.5c-37.749,0-50.339-63.78-50.339-80.92a.724.724,0,0,1,1.447,0c0,16.818,12.223,79.472,48.892,79.472,23.78,0,29.638-19.345,34.463-34.877,2.872-9.489,5.147-17,10.936-17.37a.758.758,0,0,1,.758.666.712.712,0,0,1-.666.758c-4.8.3-6.893,7.375-9.65,16.359C248.492,171.752,242.22,192.5,217.429,192.5Z" transform="translate(-94.005 90.997)" fill="#33323d"/>
      <path id="Trazado_40" data-name="Trazado 40" d="M236.208,209.724A34.832,34.832,0,0,1,221.6,220.04c-9.88,3.86-15.9,3.01-15.463,5.583s37.381,1.287,37.381-1.723-1.723-7.306-1.287-14.176S236.208,209.724,236.208,209.724Z" transform="translate(-43.374 215.324)" fill="#2d313d"/>
      <path id="Trazado_41" data-name="Trazado 41" d="M246.843,209.724s.322,6.456-8.639,10.316-9.558,3.01-9.19,5.583,24.4,1.287,24.4-1.723-1.562-7.306-1.172-14.176S246.843,209.724,246.843,209.724Z" transform="translate(-13.756 215.324)" fill="#2d313d"/>
      <path id="Trazado_42" data-name="Trazado 42" d="M257.9,55.24c-.827,9.948-3.883,12.568-2.895,14.429s8.317,2.5,8.317,2.5S259.306,58.158,257.9,55.24Z" transform="translate(19.824 18.833)" fill="#d38753"/>
      <path id="Trazado_43" data-name="Trazado 43" d="M261.232,64.029a7.076,7.076,0,0,0,2.022-.551.781.781,0,0,0,.414-1.011.758.758,0,0,0-1.011-.414,4.274,4.274,0,0,1-3.791,0c-3.079-1.562-4.319-6.893-4.342-6.893a.781.781,0,0,0-1.493.345c0,.253,1.424,5.974,5.147,7.858a5.376,5.376,0,0,0,3.056.666Z" transform="translate(17.507 18.132)" fill="#363942"/>
      <path id="Trazado_44" data-name="Trazado 44" d="M255.866,38.51s-4.09,2.527-1.516,20.241A162.656,162.656,0,0,0,259.565,78.4c2.3,12.292-1.769,12.407,11.281,37.749,0,0,10.982,1.218,29.57-10.913Z" transform="translate(18.117 -2.875)" fill="#f4be84"/>
      <path id="Trazado_45" data-name="Trazado 45" d="M273.085,66.893c4.779,19.162-5.192,22.7-12.085,27.961,0,0,6.893,1.815,20.218-5.491L280.07,54.9Z" transform="translate(27.849 18.392)" fill="#d38753"/>
      <path id="Trazado_46" data-name="Trazado 46" d="M255.24,44.206s11.718,11.12,13.785,37.91l5.56-.161s-2.3-7.191-.115-10.615l-10.8-31.04Z" transform="translate(20.375 -0.552)" fill="#8f4817"/>
      <path id="Trazado_47" data-name="Trazado 47" d="M298.64,73.817c-2.3,8.639,1.218,24.17,2.826,28.742L265.9,105.04l1.654-29.868c0-4.3,4.986-9.42,4.8-13.992Z" transform="translate(34.207 26.541)" fill="#d38753"/>
      <path id="Trazado_48" data-name="Trazado 48" d="M266.122,62.5s-11.488-.161-14.291-6.433c-.919-2.045-5.445-8.064,9.4-15.279,14.038-6.893,47.054-17.186,55.647-7.881,13.992,9.19,19.345,23.113,18.2,38.76-1.356,21.735-12.016,32.97-16.083,42.872-6.272,9.765-17.163,7.95-30.42-7.467C283.722,86.417,272.854,83.453,266.122,62.5Z" transform="translate(14.18 -14.963)" fill="#8f4817"/>
      <path id="Trazado_49" data-name="Trazado 49" d="M260.2,54.063a2.045,2.045,0,0,0-.322-2.114,7.926,7.926,0,0,0-5.445-1.149c-.414.184,0,1.746.138,2.16C255.327,54.408,258.682,54.753,260.2,54.063Z" transform="translate(19.093 12.956)" fill="#8f4817"/>
      <path id="Trazado_50" data-name="Trazado 50" d="M257.336,42.828c2.045,8.983,30.7-10.661,42.941-10.776,9.19,0,16.083,2.5,19.3,8.34a17.621,17.621,0,0,0,1.356-8.363A20.678,20.678,0,0,0,315.717,23s12.545,6.5,7.674,15.026a34.8,34.8,0,0,1-2.458,3.837c6.893,4.871,18.748,18.863,5.974,27.571-18.059,12.269-56.083,5.767-59.736.988C254.464,70.376,237.692,52.225,257.336,42.828Z" transform="translate(11.409 -23)" fill="#995221"/>
      <path id="Trazado_51" data-name="Trazado 51" d="M286.717,68.15a.758.758,0,0,0,.574-.345,10.868,10.868,0,0,0,1.447-7.927,7.122,7.122,0,0,0-4.273-4.388c-7.054-3.079-29.868-.138-30.764,0a.758.758,0,0,0-.666.873.781.781,0,0,0,.873.666c.253,0,23.274-2.987,29.868,0a5.629,5.629,0,0,1,3.423,3.423,9.489,9.489,0,0,1-1.264,6.663.781.781,0,0,0,.735,1.172Z" transform="translate(17.502 17.342)" fill="#363942"/>
      <path id="Trazado_52" data-name="Trazado 52" d="M274.621,61.824c0,4.6-2.688,8.064-6.112,7.927s-6.2-3.906-6.249-8.432,2.688-8.064,6.112-7.927S274.6,57.321,274.621,61.824Z" transform="translate(29.483 16.431)" fill="#f4be84"/>
      <path id="Trazado_53" data-name="Trazado 53" d="M265.44,63.752c1.654,0,2.964-1.654,2.941-3.837a3.791,3.791,0,0,0-3.01-4.067,2.3,2.3,0,0,0-1.631.666,3.17,3.17,0,0,1,2.734-1.654,4.6,4.6,0,0,1,3.676,4.963c0,2.665-1.585,4.756-3.607,4.6a3.217,3.217,0,0,1-2.068-1.034,2.3,2.3,0,0,0,.965.368Z" transform="translate(31.404 18.34)" fill="#d38753"/>
      <rect id="Rectángulo_29" data-name="Rectángulo 29" width="102.057" height="2.458" transform="translate(261.048 231.456) rotate(180)" fill="#33323d"/>
      <rect id="Rectángulo_30" data-name="Rectángulo 30" width="9.719" height="1.149" transform="translate(178.061 229.411) rotate(180)" fill="#33323d"/>
      <rect id="Rectángulo_31" data-name="Rectángulo 31" width="9.719" height="1.149" transform="translate(193.707 229.411) rotate(180)" fill="#33323d"/>
      <g id="table" transform="translate(0 231.41)">
        <rect id="Rectángulo_32" data-name="Rectángulo 32" width="7.122" height="204.322" transform="translate(12.705 6.548)" fill="#c48c58"/>
        <rect id="Rectángulo_33" data-name="Rectángulo 33" width="7.122" height="204.322" transform="translate(345.346 6.548)" fill="#a8693f"/>
        <rect id="Rectángulo_34" data-name="Rectángulo 34" width="4.228" height="204.322" transform="translate(100.817 6.548)" fill="#c48c58"/>
        <rect id="Rectángulo_35" data-name="Rectángulo 35" width="4.228" height="204.322" transform="translate(105.044 6.548)" fill="#a8693f"/>
        <rect id="Rectángulo_36" data-name="Rectángulo 36" width="92.339" height="20.747" transform="translate(12.705 7.145)" fill="#c48c58"/>
        <rect id="Rectángulo_37" data-name="Rectángulo 37" width="7.122" height="204.322" transform="translate(259.854 6.548)" fill="#9e623a"/>
        <rect id="Rectángulo_38" data-name="Rectángulo 38" width="247.424" height="20.747" transform="translate(105.044 7.145)" fill="#a8693f"/>
        <rect id="Rectángulo_39" data-name="Rectángulo 39" width="107.686" height="13.602" fill="#d39b67"/>
        <rect id="Rectángulo_40" data-name="Rectángulo 40" width="261.852" height="13.602" transform="translate(104.906)" fill="#b7784e"/>
        <rect id="Rectángulo_41" data-name="Rectángulo 41" width="366.759" height="2.803" fill="#e8ab73"/>
      </g>
      <path id="Trazado_54" data-name="Trazado 54" d="M15.29,38.99V156.832H88.651V176.2H67.123v4.618h54.13V176.2H99.909V156.832h73.66V38.99Z" transform="translate(19.84 50.638)" fill="#767284"/>
      <rect id="Rectángulo_42" data-name="Rectángulo 42" width="152.512" height="117.911" transform="translate(40.896 89.628)" fill="#33323d"/>
      <rect id="Rectángulo_43" data-name="Rectángulo 43" width="13.073" height="38.622" transform="translate(112.672 190.375)" fill="#2e2d38"/>
      <rect id="Rectángulo_44" data-name="Rectángulo 44" width="55.762" height="4.549" transform="translate(91.328 226.907)" fill="#2e2d38"/>
      <rect id="Rectángulo_45" data-name="Rectángulo 45" width="140.587" height="108.674" transform="translate(46.87 94.246)" fill="#24c6e0"/>
      <rect id="Rectángulo_46" data-name="Rectángulo 46" width="140.587" height="5.215" transform="translate(46.87 197.797)" fill="#a4eeff"/>
      <rect id="Rectángulo_47" data-name="Rectángulo 47" width="140.587" height="5.215" transform="translate(46.87 94.246)" fill="#a4eeff"/>
      <rect id="Rectángulo_48" data-name="Rectángulo 48" width="102.012" height="77.565" transform="translate(52.017 107.847)" fill="#323749"/>
      <rect id="Rectángulo_49" data-name="Rectángulo 49" width="102.012" height="70.788" transform="translate(52.017 114.625)" fill="#3d4359"/>
      <circle id="Elipse_2" data-name="Elipse 2" cx="1.562" cy="1.562" r="1.562" transform="translate(148.836 109.479)" fill="#f72f5a"/>
      <circle id="Elipse_3" data-name="Elipse 3" cx="1.562" cy="1.562" r="1.562" transform="translate(144.424 109.479)" fill="#aedd2c"/>
      <circle id="Elipse_4" data-name="Elipse 4" cx="1.562" cy="1.562" r="1.562" transform="translate(139.852 109.479)" fill="#ffda24"/>
      <rect id="Rectángulo_50" data-name="Rectángulo 50" width="3.906" height="70.788" transform="translate(150.145 114.625)" fill="#323749"/>
      <rect id="Rectángulo_51" data-name="Rectángulo 51" width="2.872" height="6.249" transform="translate(150.674 142.219)" fill="#7c788e"/>
      <rect id="Rectángulo_52" data-name="Rectángulo 52" width="45.032" height="5.721" transform="translate(57.232 117.75)" fill="#a6a4bc"/>
      <rect id="Rectángulo_53" data-name="Rectángulo 53" width="86.664" height="2.298" transform="translate(57.232 128.686)" fill="#7c788e"/>
      <rect id="Rectángulo_54" data-name="Rectángulo 54" width="86.664" height="2.298" transform="translate(57.232 134.292)" fill="#7c788e"/>
      <rect id="Rectángulo_55" data-name="Rectángulo 55" width="34.877" height="2.298" transform="translate(57.232 139.921)" fill="#7c788e"/>
      <rect id="Rectángulo_56" data-name="Rectángulo 56" width="86.664" height="2.298" transform="translate(57.232 149.226)" fill="#7c788e"/>
      <rect id="Rectángulo_57" data-name="Rectángulo 57" width="86.664" height="2.298" transform="translate(57.232 154.855)" fill="#7c788e"/>
      <rect id="Rectángulo_58" data-name="Rectángulo 58" width="86.664" height="2.298" transform="translate(57.232 169.858)" fill="#7c788e"/>
      <rect id="Rectángulo_59" data-name="Rectángulo 59" width="86.664" height="2.298" transform="translate(57.232 175.464)" fill="#7c788e"/>
      <rect id="Rectángulo_60" data-name="Rectángulo 60" width="61.414" height="2.298" transform="translate(57.232 160.484)" fill="#7c788e"/>
      <rect id="Rectángulo_61" data-name="Rectángulo 61" width="26.376" height="35.497" transform="translate(156.992 156.992)" fill="#323749"/>
      <rect id="Rectángulo_62" data-name="Rectángulo 62" width="26.376" height="29.501" transform="translate(156.992 162.989)" fill="#3d4359"/>
      <rect id="Rectángulo_63" data-name="Rectángulo 63" width="3.607" height="29.501" transform="translate(179.784 162.989)" fill="#323749"/>
      <circle id="Elipse_5" data-name="Elipse 5" cx="1.562" cy="1.562" r="1.562" transform="translate(178.796 158.554)" fill="#f72f5a"/>
      <circle id="Elipse_6" data-name="Elipse 6" cx="1.562" cy="1.562" r="1.562" transform="translate(174.385 158.554)" fill="#aedd2c"/>
      <circle id="Elipse_7" data-name="Elipse 7" cx="1.562" cy="1.562" r="1.562" transform="translate(169.812 158.554)" fill="#ffda24"/>
      <rect id="Rectángulo_64" data-name="Rectángulo 64" width="8.639" height="2.16" transform="translate(159.45 164.735)" fill="#7c788e"/>
      <rect id="Rectángulo_65" data-name="Rectángulo 65" width="17.806" height="0.919" transform="translate(159.45 169.583)" fill="#7c788e"/>
      <rect id="Rectángulo_66" data-name="Rectángulo 66" width="17.806" height="0.919" transform="translate(159.45 171.926)" fill="#7c788e"/>
      <rect id="Rectángulo_67" data-name="Rectángulo 67" width="17.806" height="0.919" transform="translate(159.45 174.247)" fill="#7c788e"/>
      <rect id="Rectángulo_68" data-name="Rectángulo 68" width="8.639" height="2.16" transform="translate(159.45 178.198)" fill="#7c788e"/>
      <rect id="Rectángulo_69" data-name="Rectángulo 69" width="17.806" height="0.896" transform="translate(159.45 183.069)" fill="#7c788e"/>
      <rect id="Rectángulo_70" data-name="Rectángulo 70" width="17.806" height="0.919" transform="translate(159.45 185.39)" fill="#7c788e"/>
      <rect id="Rectángulo_71" data-name="Rectángulo 71" width="17.806" height="0.896" transform="translate(159.45 187.733)" fill="#7c788e"/>
      <rect id="Rectángulo_72" data-name="Rectángulo 72" width="1.608" height="5.215" transform="translate(180.68 177.142)" fill="#7c788e"/>
      <path id="Trazado_55" data-name="Trazado 55" d="M20.4,149.674V41H160.987Z" transform="translate(26.47 53.246)" fill="#fff" opacity="0.1"/>
      <path id="Trazado_56" data-name="Trazado 56" d="M240.456,303.937c-5.882-74.831-16.083-145.206-5.238-155.338,15.807-14.865,82.712-13.624,82.712-13.624l-53.809,44.044s3.653,11.143,5.009,38.461-13.785,86.457-13.785,86.457Z" transform="translate(-11.803 122.26)" fill="#46526b"/>
      <path id="Trazado_57" data-name="Trazado 57" d="M227.52,306.543c-5.882-74.831-27.456-153.752-14.429-160.829,9.925-5.376,83.608-5.882,83.608-5.882l14.337-6.893,55.969,8.915s8.2,37.129-23.343,41.976-96.957-2.3-96.957-2.3,5.744,9.971,7.1,37.289-11.327,87.606-11.327,87.606Z" transform="translate(-39.649 119.653)" fill="#667591"/>
      <path id="Trazado_58" data-name="Trazado 58" d="M230.366,300.756s12.683-60.288,11.327-87.606-7.1-37.289-7.1-37.289,65.411,7.054,96.957,2.3a26.215,26.215,0,0,0,19.162-11.488L329.023,137.4c-32.74,31.293-108.284,21.229-110.444,24.1s8.639,23.389,12.591,56.474c3.515,29.409-5.169,73.522-7.145,82.988Z" transform="translate(-27.561 125.44)" fill="#505e77"/>
      <path id="Trazado_59" data-name="Trazado 59" d="M244.53,210.045a41.563,41.563,0,0,0,18.84-22.24c6.066-16.2-7.1-68.927,0-92.27,5.767-18.7,38.231-16.588,51.075-17.278s39.679,6.18,42.918,18.082c7.789,28.513,9.535,126.848-23.941,153.362C317.96,262.015,261.555,259.235,244.53,210.045Z" transform="translate(6.478 48.637)" fill="#f4e2d4"/>
      <path id="Trazado_60" data-name="Trazado 60" d="M326.2,249.689c33.475-26.514,31.729-124.849,23.941-153.362-3.24-11.878-30.1-18.748-42.918-18.082C294.812,78.888,264.093,77,256.879,93.8l11.051,14.429s13.464,57.3,6.893,100.013C272,226.759,257.338,229.746,250.17,232.8,273.743,259.8,313.514,259.752,326.2,249.689Z" transform="translate(13.796 48.626)" fill="#edccc1"/>
      <path id="Trazado_61" data-name="Trazado 61" d="M241.447,122.536a50.155,50.155,0,0,0-11.488-1.976,51.21,51.21,0,0,0-10.247,2.8c-5.216,1.585-11.051,3.309-10.523,4.457h30.948Z" transform="translate(-39.422 103.59)" fill="#f4be84"/>
      <path id="Trazado_62" data-name="Trazado 62" d="M305.563,74.05l5.33,9.443s-7.72,6.525-47.743,1.93l3.538-9.7S292.03,75.452,305.563,74.05Z" transform="translate(30.639 43.24)" fill="#f7eee2"/>
      <path id="Trazado_63" data-name="Trazado 63" d="M274.812,85.509c-7.536,2.3-11.3,14.153-13.372,28.421,1.034,24.492,6.18,53.671,1.93,64.975a41.563,41.563,0,0,1-18.84,22.24c.207.574.46,1.057.666,1.608,9.535,3.354,18.978,5.468,26.79,2.3C300.889,193.586,302.337,77.031,274.812,85.509Z" transform="translate(6.478 57.537)" fill="#edccc1"/>
      <g id="chair" transform="translate(232.191 118.232)">
        <rect id="Rectángulo_73" data-name="Rectángulo 73" width="116.647" height="7.49" transform="translate(62.08 200.806) rotate(90)" fill="#a5c0d7"/>
        <rect id="Rectángulo_74" data-name="Rectángulo 74" width="116.647" height="2.734" transform="translate(57.324 200.806) rotate(90)" fill="#8394b4"/>
        <path id="Trazado_64" data-name="Trazado 64" d="M136.233,167.653l5.951-28.053h-20.1l5.951,28.053Z" transform="translate(-73.785 62.953)" fill="#8394b4"/>
        <path id="Trazado_65" data-name="Trazado 65" d="M108.13,196.969h84.205v-2.32l-33.82-5.629H141.95l-33.82,5.629Z" transform="translate(-91.886 127.078)" fill="#a5c0d7"/>
        <path id="Trazado_66" data-name="Trazado 66" d="M121.99,202.808h20.494l-3.791-23.918H125.8Z" transform="translate(-73.902 113.934)" fill="#a5c0d7"/>
        <path id="Trazado_67" data-name="Trazado 67" d="M156.677,178.89H143.788l-3.814,23.918-31.844,4.986h56.129l-9.925-4.3L151.646,181Z" transform="translate(-91.886 113.934)" fill="#8394b4"/>
        <path id="Trazado_68" data-name="Trazado 68" d="M238.193,165.672H346.431a10.592,10.592,0,0,0-10.592-10.592H248.762a10.592,10.592,0,0,0-10.592,10.592Z" transform="translate(-233.965 30.149)" fill="#3d4359"/>
        <path id="Trazado_69" data-name="Trazado 69" d="M248.749,155.08h45.538a10.592,10.592,0,0,0-10.592,10.592H238.18a10.592,10.592,0,0,1,10.569-10.592Z" transform="translate(-233.952 30.149)" fill="#323749"/>
        <path id="Trazado_70" data-name="Trazado 70" d="M346.257,158.89a10.617,10.617,0,0,1,.184,1.861H238.18a10.615,10.615,0,0,1,.161-1.861Z" transform="translate(-233.953 35.093)" fill="#323749"/>
        <rect id="Rectángulo_75" data-name="Rectángulo 75" width="116.716" height="14.291" transform="translate(116.716 209.675) rotate(180)" fill="#3d4359"/>
        <rect id="Rectángulo_76" data-name="Rectángulo 76" width="75.429" height="14.291" transform="translate(75.429 209.675) rotate(180)" fill="#323749"/>
        <rect id="Rectángulo_77" data-name="Rectángulo 77" width="116.716" height="1.723" transform="translate(116.716 197.107) rotate(180)" fill="#323749"/>
        <path id="Trazado_71" data-name="Trazado 71" d="M271.843,181.92a6.02,6.02,0,0,1-2-.276c-4.136-1.516-3.285-14.429-3.171-15.876a.574.574,0,0,1,.666-.574.62.62,0,0,1,.574.666c-.391,5.169,0,13.785,2.3,14.612,2.964,1.057,14.222-2.3,18.38-3.814a.632.632,0,1,1,.414,1.195C287.651,178.313,277.151,181.92,271.843,181.92Z" transform="translate(-197.173 43.263)" fill="#323749"/>
        <path id="Trazado_72" data-name="Trazado 72" d="M281.2,168.6c-2.734.712-6.755,3.63-6.2,5.744s5.491,2.642,8.225,1.93A4.09,4.09,0,1,0,281.2,168.6Z" transform="translate(-186.244 47.03)" fill="#323749"/>
        <path id="Trazado_73" data-name="Trazado 73" d="M275.706,186.483h14.521a9.443,9.443,0,0,0,9.581-7.72V146H285.241v32.763H275.66Z" transform="translate(-185.32 18.367)" fill="#a5c0d7"/>
        <path id="Trazado_74" data-name="Trazado 74" d="M285.261,146v32.763H275.68v7.72H290.2a10.546,10.546,0,0,0,3.354-.551,9.006,9.006,0,0,1-5.583-6.64V146Z" transform="translate(-185.294 18.367)" fill="#8394b4"/>
        <path id="Trazado_75" data-name="Trazado 75" d="M262.767,178.378c-2.481,46.112,17.576,64.332,43.516,64.332s47.95-18.2,50.431-64.332S341.183,75.7,315.358,75.7,265.226,132.266,262.767,178.378Z" transform="translate(-202.319 -72.851)" fill="#323749"/>
        <path id="Trazado_76" data-name="Trazado 76" d="M264.87,180.653c-2.55,47.7,18.174,66.514,45.009,66.514s49.6-18.817,52.155-66.514S345.951,74.46,319.138,74.46,267.42,132.956,264.87,180.653Z" transform="translate(-199.596 -74.46)" fill="#3d4359"/>
      </g>
      <path id="Trazado_77" data-name="Trazado 77" d="M298.136,82.313c27.777-7.628,13.326,114.6-2.757,119.611-21.574,6.893-51.971-15.83-73.269-24.009v-8.087c28.306.368,48.432,3.331,54.2-1.47S280.1,87.3,298.136,82.313Z" transform="translate(-22.613 53.518)" fill="#f7eee2"/>
    </g>
  </g>
</svg>
